<svg xmlns="http://www.w3.org/2000/svg" width="1280" height="1280" viewBox="0 0 1280 1280" version="1.1"><path d="M 659.500 154.524 C 631.862 157.277, 592.951 164.290, 569 170.835 C 538.168 179.262, 515.067 187.632, 488 200.184 C 477.780 204.923, 459.064 214.480, 455 217.036 C 454.175 217.555, 451.700 218.949, 449.500 220.134 C 433.437 228.789, 401.317 249.879, 384 263.142 C 355.607 284.888, 318.457 320.706, 294.950 349 C 267.183 382.422, 233.535 438.156, 219.484 474 C 211.921 493.296, 202.848 525.273, 197.866 550.198 C 190.660 586.248, 190.841 585.002, 192.809 584.999 C 193.189 584.998, 194.805 582.636, 196.399 579.749 C 200.890 571.618, 210.831 555.243, 215.976 547.500 C 248.244 498.945, 252.120 493.308, 265.825 475 C 282.500 452.724, 299.721 431.561, 313.382 416.553 C 328.968 399.432, 362.902 365.532, 380.500 349.502 C 402.282 329.661, 444.513 298.786, 473.447 281.548 C 482.847 275.948, 511.728 261.095, 522.540 256.301 C 615.558 215.056, 721.404 205.833, 819 230.469 C 829.946 233.232, 835.782 234.995, 852.500 240.591 C 865.822 245.050, 875.119 248.538, 881.665 251.533 C 884.632 252.890, 887.290 254, 887.572 254 C 889.458 254, 925.876 273.224, 936.500 279.828 C 939.250 281.538, 943.104 283.817, 945.064 284.894 C 955.172 290.444, 981.301 309.235, 991.352 318.181 L 996.204 322.500 939.929 378.433 C 908.977 409.196, 882.186 435.654, 880.392 437.229 L 877.132 440.091 872.316 436.654 C 855.667 424.771, 825.902 409.229, 803.500 400.723 C 773.014 389.147, 753.810 384.365, 722 380.430 C 673.790 374.466, 622.672 378.540, 578.500 391.867 C 557.567 398.182, 523.399 412.834, 506.499 422.741 C 504.849 423.708, 501.249 425.811, 498.499 427.413 C 455.008 452.753, 408.158 497.204, 380.362 539.500 C 371.895 552.383, 371.225 553.465, 366.633 561.663 C 356.233 580.225, 344.043 608.566, 338.529 627 C 327.644 663.386, 323.279 689.529, 322.333 724 C 320.945 774.576, 328.187 823.369, 343.557 867 C 355.105 899.780, 374.199 935.313, 395.154 963.023 C 431.988 1011.729, 483.865 1054.050, 541.500 1082.410 C 584.149 1103.396, 616.307 1114.196, 662.291 1122.977 C 685.170 1127.346, 699.709 1128.436, 735.500 1128.468 C 779.020 1128.507, 796.702 1126.909, 828.500 1120.065 C 850.616 1115.304, 888.506 1103.127, 903.566 1095.940 C 905.802 1094.873, 907.939 1094, 908.315 1094 C 910.182 1094, 947.954 1074.437, 959 1067.748 C 966.594 1063.151, 985.940 1050.288, 993.888 1044.553 C 1004.002 1037.254, 1033.555 1013.480, 1040.457 1007.090 C 1055.499 993.164, 1059 989.507, 1059 987.721 C 1059 985.795, 1028.884 955.187, 982 909.463 C 970.175 897.930, 944.343 872.746, 924.596 853.497 C 904.849 834.249, 887.749 817.556, 886.596 816.402 C 885.443 815.248, 882.885 813.112, 880.910 811.656 L 877.321 809.007 865.910 818.034 C 832.208 844.697, 802.408 859.663, 765.500 868.461 C 749.441 872.290, 736.534 873.299, 711 872.722 C 690.914 872.268, 686.783 871.871, 672.500 869.014 C 654.674 865.450, 644.083 862.591, 630 857.540 C 602.896 847.821, 587.437 840.333, 533.700 810.895 C 509.105 797.421, 501.913 793.754, 501.295 794.372 C 500.594 795.073, 502.499 798.220, 510.333 809.311 C 514.292 814.915, 518.199 820.478, 519.015 821.674 C 533.871 843.423, 559.333 869.242, 583.500 887.064 C 586.800 889.498, 589.725 891.716, 590 891.994 C 590.275 892.272, 593.200 894.255, 596.500 896.399 C 599.800 898.543, 603.702 901.118, 605.172 902.121 C 609.363 904.981, 626.690 913.498, 635.500 917.028 C 651.310 923.364, 673.652 929.490, 690 931.972 C 703.663 934.046, 738.947 934.419, 754 932.648 C 794.370 927.900, 835.893 910.878, 863.993 887.558 C 867.014 885.051, 869.714 883.007, 869.993 883.016 C 871.015 883.049, 964.839 976.621, 967.511 980.272 C 970.174 983.911, 970.208 984.113, 968.488 986.013 C 966.504 988.205, 933.149 1010.556, 923 1016.494 C 913.735 1021.914, 892.627 1032.719, 885.530 1035.673 C 851.365 1049.895, 832.359 1055.839, 801.500 1061.951 C 749.428 1072.263, 694.217 1070.574, 642.943 1057.100 C 600.068 1045.833, 569.328 1031.953, 530 1006.102 C 507.499 991.312, 487.741 974.534, 468.642 954 C 461.297 946.103, 451.403 934.323, 447.969 929.388 C 427.935 900.591, 416.861 880.561, 406.568 854.500 C 405.048 850.650, 403.245 846.150, 402.563 844.500 C 397.116 831.323, 389.861 800.880, 386.833 778.500 C 383.546 754.196, 383.778 721.014, 387.409 696.176 C 395.501 640.809, 413.978 595.765, 444.976 555.832 C 454.966 542.962, 482.865 515.659, 496 505.898 C 510.537 495.095, 514.185 492.632, 526.500 485.298 C 573.738 457.169, 622.193 443.875, 678 443.733 C 709.535 443.652, 740.140 449.220, 771.500 460.744 C 779.120 463.545, 806.882 475.734, 808.500 476.990 C 809.050 477.417, 813.550 479.872, 818.500 482.446 C 836.075 491.584, 851.586 501.667, 866.957 513.946 C 872.158 518.101, 877.016 521.871, 877.753 522.325 C 879.283 523.269, 881.841 521.142, 899 504.654 C 932.486 472.477, 1088 318.134, 1088 317.077 C 1088 315.683, 1051.815 280.558, 1040.500 270.969 C 1013.925 248.446, 989.291 231.583, 955.709 212.927 C 951.344 210.502, 928.035 199, 927.486 199 C 927.151 199, 924.542 197.916, 921.688 196.591 C 909.986 191.156, 884.295 181.613, 864 175.162 C 837.146 166.626, 785.835 157.348, 749.671 154.489 C 726.743 152.676, 677.869 152.695, 659.500 154.524" stroke="none" fill="#8B5CF6" fill-rule="evenodd"/></svg>