<?xml version="1.0" standalone="no"?>
<!DOCTYPE svg PUBLIC "-//W3C//DTD SVG 20010904//EN"
 "http://www.w3.org/TR/2001/REC-SVG-20010904/DTD/svg10.dtd">
<svg version="1.0" xmlns="http://www.w3.org/2000/svg"
 width="1024.000000pt" height="1024.000000pt" viewBox="0 0 1024.000000 1024.000000"
 preserveAspectRatio="xMidYMid meet">

<g transform="translate(0.000000,1024.000000) scale(0.100000,-0.100000)"
fill="#000000" stroke="none">
<path d="M5200 9329 c-351 -17 -719 -105 -1105 -266 -547 -229 -1368 -692
-1696 -958 -137 -111 -367 -332 -473 -455 -155 -179 -360 -479 -449 -657 -130
-258 -247 -675 -282 -999 -8 -76 -24 -225 -35 -329 -39 -358 -36 -544 11 -885
48 -348 262 -1164 389 -1480 72 -180 227 -478 348 -669 112 -177 301 -409 448
-551 291 -280 532 -458 815 -599 176 -88 411 -184 451 -184 15 0 25 -3 23 -7
-3 -4 58 -28 134 -53 596 -198 1219 -240 1811 -121 170 34 333 78 323 87 -4 5
0 5 9 2 25 -10 333 85 488 150 112 47 319 154 480 248 150 87 330 203 330 212
0 2 -53 -29 -118 -69 -315 -196 -610 -348 -822 -424 -405 -145 -971 -220
-1378 -183 -331 31 -589 83 -885 182 -364 122 -567 233 -972 534 -179 133
-449 414 -597 620 -65 91 -199 318 -260 439 -84 167 -201 480 -243 649 -87
353 -120 631 -120 1007 1 339 28 571 106 899 73 306 213 687 352 953 99 189
124 216 36 38 -154 -312 -307 -877 -361 -1340 -29 -249 -32 -721 -5 -940 60
-483 153 -799 348 -1181 296 -578 701 -984 1342 -1344 419 -236 940 -365 1542
-381 202 -6 252 -4 410 15 246 31 371 54 569 107 242 65 497 155 677 238 145
67 319 161 319 173 0 2 -51 -23 -112 -55 -436 -232 -980 -397 -1482 -452 -145
-15 -499 -13 -672 5 -292 30 -546 84 -800 170 -212 71 -293 108 -481 217 -447
258 -739 502 -996 831 -190 243 -416 676 -511 974 -121 384 -186 946 -157
1353 17 238 55 519 96 720 20 96 38 177 41 179 6 6 6 2 -16 -126 -30 -181 -42
-372 -41 -673 2 -573 44 -890 177 -1320 80 -257 230 -562 407 -825 199 -297
563 -640 915 -864 270 -171 646 -325 965 -396 445 -98 744 -114 1191 -64 356
40 716 129 1061 264 254 99 445 198 795 414 210 129 298 193 414 301 36 35 69
61 71 58 3 -3 -72 -78 -167 -168 -172 -163 -356 -316 -514 -429 -46 -32 -80
-62 -76 -66 4 -5 -2 -5 -13 -1 -11 4 -16 4 -12 0 4 -4 1 -14 -6 -23 -6 -9 4
-4 23 10 19 14 78 56 130 94 273 196 521 427 879 819 148 162 314 405 416 606
58 115 146 341 184 475 18 61 38 130 46 155 79 262 111 604 95 1015 -10 252
-28 408 -85 730 -14 77 -36 212 -51 300 -41 257 -111 588 -150 705 -87 269
-211 564 -308 732 -276 479 -658 929 -1014 1194 -221 166 -524 336 -752 424
-328 127 -497 172 -830 221 -104 15 -458 25 -620 18z m390 -24 c362 -45 700
-167 1080 -390 159 -93 258 -163 398 -283 219 -187 361 -348 544 -617 141
-207 229 -368 308 -565 238 -594 314 -1077 270 -1715 -18 -261 -61 -512 -140
-812 -32 -119 -140 -426 -166 -471 -9 -16 -13 -19 -9 -7 89 281 158 632 210
1065 35 289 30 704 -10 939 -91 524 -153 726 -330 1086 -122 246 -303 514
-498 738 -126 143 -387 362 -612 513 -184 123 -229 148 -403 225 -400 178
-729 249 -1152 249 -135 0 -337 -16 -450 -36 -19 -4 -32 -4 -29 -1 10 11 401
77 509 86 171 14 347 12 480 -4z m426 -45 c446 -89 670 -187 1064 -466 271
-192 543 -489 737 -802 95 -153 224 -417 278 -567 87 -242 170 -593 202 -855
25 -213 25 -758 0 -920 -74 -459 -150 -743 -306 -1132 -67 -169 -342 -670
-358 -654 -3 3 9 29 26 58 57 98 128 242 155 316 14 40 52 134 85 210 77 179
154 408 187 552 109 482 128 639 128 1025 0 304 -12 458 -55 685 -81 425 -275
934 -459 1206 -34 49 -90 133 -126 186 -152 225 -445 523 -684 694 -302 217
-741 415 -1085 488 -109 23 -114 25 -50 20 39 -3 156 -23 261 -44z m-641 -31
c292 -27 542 -96 848 -233 188 -85 285 -140 442 -249 283 -197 569 -465 742
-695 179 -238 295 -439 412 -713 109 -257 143 -368 196 -649 95 -499 103 -748
40 -1285 -30 -248 -96 -630 -95 -544 0 8 5 44 10 81 39 270 56 938 30 1214
-16 176 -69 469 -106 589 -39 123 -149 425 -185 509 -105 237 -264 513 -380
656 -24 30 -74 93 -111 140 -101 129 -158 186 -348 351 -310 268 -683 493
-980 592 -227 75 -538 130 -805 142 -237 10 -601 -25 -820 -81 -121 -31 -373
-113 -446 -147 -30 -13 -65 -27 -79 -30 -43 -11 218 112 369 174 301 123 473
164 821 193 66 6 318 -3 445 -15z m-74 -125 c530 -74 829 -188 1259 -482 168
-114 199 -140 382 -308 174 -160 274 -273 413 -469 119 -168 131 -188 231
-377 193 -365 332 -800 395 -1238 15 -101 23 -773 11 -825 -8 -33 -10 -20 -11
80 -1 118 -35 426 -66 595 -64 346 -172 738 -267 959 -40 96 -149 309 -221
436 -113 197 -346 503 -489 641 -278 270 -614 505 -904 631 -415 182 -822 253
-1284 224 -306 -20 -460 -44 -725 -117 -356 -96 -606 -203 -929 -396 -194
-115 -593 -415 -711 -533 -253 -254 -462 -501 -622 -736 -35 -51 -195 -343
-273 -499 -133 -265 -287 -719 -291 -857 0 -16 -3 -22 -6 -16 -8 20 26 277 58
433 51 258 141 532 242 740 40 83 215 355 306 475 237 315 534 589 911 842
228 153 706 420 882 493 43 18 75 36 72 41 -3 5 1 6 9 3 7 -2 70 18 138 45
285 114 627 199 886 220 176 15 484 12 604 -5z m1560 -122 c254 -128 571 -344
752 -512 194 -181 404 -488 537 -786 191 -430 287 -824 306 -1257 3 -72 7
-146 8 -162 5 -48 -12 -419 -24 -530 -15 -138 -83 -475 -125 -621 -104 -359
-276 -760 -448 -1045 -96 -158 -539 -748 -600 -798 -30 -24 -18 0 31 63 110
140 316 462 306 478 -4 6 -2 8 3 5 11 -7 137 183 226 338 161 282 325 726 401
1085 110 518 128 812 81 1280 -50 504 -199 988 -427 1386 -91 161 -292 436
-401 551 -202 213 -479 429 -692 540 -55 29 -93 52 -84 53 9 0 77 -30 150 -68z
m-1486 -55 c266 -47 421 -93 664 -201 402 -178 867 -551 1139 -914 168 -224
248 -354 382 -622 134 -266 235 -587 324 -1030 20 -96 36 -179 35 -185 0 -5
-20 60 -44 145 -80 287 -214 623 -374 940 -115 228 -187 349 -285 480 -307
410 -690 754 -1056 948 -319 170 -658 272 -1005 302 -591 52 -1186 -62 -1735
-335 -284 -141 -670 -408 -918 -634 -197 -181 -523 -579 -683 -836 -148 -237
-346 -665 -434 -938 -129 -400 -178 -711 -179 -1134 -1 -144 -2 -260 -3 -259
-2 1 -14 105 -28 229 -49 443 -24 755 95 1203 69 261 338 833 521 1107 126
190 273 369 478 585 183 192 303 295 569 489 288 209 666 408 955 502 331 107
562 154 902 185 22 2 150 3 285 1 212 -2 265 -6 395 -28z m-135 -161 c245 -27
574 -127 825 -250 330 -163 632 -403 943 -751 259 -289 364 -460 617 -1000 16
-33 29 -71 31 -85 1 -14 27 -80 58 -147 87 -193 216 -634 236 -811 19 -172 30
-516 20 -640 -19 -238 -65 -486 -126 -688 -38 -127 -135 -360 -186 -451 -18
-31 -32 -68 -33 -82 0 -15 -6 -25 -13 -24 -6 2 -26 -25 -43 -60 -59 -117 -248
-407 -338 -517 -19 -24 -30 -40 -22 -36 9 6 12 5 9 -5 -3 -8 -10 -13 -16 -12
-5 1 -58 -54 -117 -122 -189 -219 -353 -361 -630 -545 -108 -72 -307 -173
-495 -252 -265 -111 -454 -147 -832 -155 -273 -6 -350 0 -593 49 -317 63 -549
141 -795 266 -240 123 -276 145 -471 293 -174 132 -348 294 -542 504 -66 72
-124 129 -129 127 -5 -1 -7 1 -4 6 3 5 -36 71 -87 148 -180 272 -292 533 -377
878 -56 231 -71 353 -77 647 -6 259 2 389 33 588 8 52 13 106 9 120 -4 17 -3
21 3 12 7 -9 12 2 16 35 10 67 78 305 128 444 23 63 72 175 110 248 37 74 65
139 61 144 -3 6 -1 8 4 5 6 -4 29 25 53 66 56 94 239 364 303 447 45 57 172
208 247 293 39 45 286 268 375 339 113 91 218 162 382 261 78 47 139 88 135
93 -4 4 -2 4 5 0 7 -4 31 3 54 14 123 63 387 145 579 180 58 10 195 24 306 31
431 27 847 -43 1245 -210 95 -39 362 -188 449 -249 130 -91 307 -231 399 -315
52 -47 99 -83 105 -80 6 3 8 3 4 -2 -4 -4 33 -51 84 -103 158 -166 307 -377
449 -636 29 -53 55 -94 57 -91 7 7 -144 281 -213 385 -76 114 -202 274 -340
430 -130 146 -432 440 -554 539 -183 148 -162 133 -386 266 -145 86 -452 202
-660 249 -232 53 -409 71 -675 70 -263 -1 -392 -15 -630 -68 -138 -31 -369
-102 -500 -153 -304 -119 -672 -359 -1020 -666 -379 -333 -705 -771 -947
-1274 -227 -473 -336 -836 -410 -1366 -22 -161 -25 -715 -4 -855 8 -51 12 -94
9 -97 -9 -10 -70 295 -84 420 -16 155 -18 518 -3 671 53 546 220 1056 527
1609 90 162 297 457 432 614 208 243 393 422 580 562 284 211 486 339 675 427
200 93 356 153 555 215 165 52 246 68 498 102 154 22 205 24 392 20 118 -2
276 -11 350 -19z m-10 -181 c146 -18 380 -74 549 -131 239 -80 504 -230 730
-413 150 -122 531 -484 531 -504 0 -7 -13 2 -28 18 -47 53 -223 206 -319 277
-158 117 -321 216 -523 317 -367 183 -596 256 -940 300 -221 28 -383 34 -555
22 -445 -33 -795 -145 -1269 -405 -454 -250 -872 -629 -1203 -1091 -177 -248
-232 -340 -365 -610 -164 -335 -264 -628 -338 -995 -87 -433 -112 -970 -64
-1380 17 -149 79 -448 125 -603 17 -54 28 -101 26 -104 -11 -10 -132 363 -191
587 -136 517 -126 1104 29 1735 142 579 423 1149 807 1640 209 266 377 431
698 685 164 130 403 286 556 363 281 142 692 263 1019 302 157 18 540 13 725
-10z m-125 -135 c132 -12 303 -42 440 -76 109 -27 378 -115 371 -121 -2 -2
-71 14 -152 37 -318 87 -470 105 -818 97 -374 -9 -535 -40 -916 -181 -238 -88
-542 -249 -806 -427 -221 -149 -593 -492 -772 -712 -90 -110 -248 -330 -323
-447 -305 -482 -500 -1076 -571 -1745 -16 -150 -15 -678 1 -835 41 -405 145
-797 306 -1161 94 -213 135 -289 238 -444 85 -128 217 -299 224 -291 2 2 -25
42 -60 87 -85 110 -221 321 -285 439 -56 105 -183 398 -230 532 -41 116 -137
509 -156 638 -54 375 -50 911 10 1295 17 107 89 422 131 570 27 96 101 302
152 423 135 324 431 775 699 1067 173 188 421 410 606 544 141 102 665 401
703 401 4 0 -53 -35 -127 -78 -295 -170 -483 -317 -794 -622 -223 -218 -486
-514 -601 -675 -124 -173 -199 -303 -300 -515 -145 -307 -182 -408 -264 -737
-138 -548 -170 -1046 -100 -1538 111 -779 326 -1287 772 -1825 297 -358 704
-666 1080 -817 21 -9 36 -17 34 -20 -5 -5 -113 35 -193 72 -32 15 -86 40 -120
55 -107 49 -286 150 -394 222 -165 111 -264 193 -411 335 -75 73 -138 130
-141 127 -9 -8 -172 178 -263 301 -200 270 -338 507 -426 735 -57 147 -142
480 -185 725 -24 136 -27 181 -31 480 -7 480 24 780 122 1180 54 222 80 304
175 540 48 121 238 504 297 598 109 175 377 536 487 656 116 126 397 375 562
499 247 185 758 439 1056 526 121 35 335 76 448 85 141 12 400 12 525 1z m850
-218 c-3 -3 -11 0 -18 7 -9 10 -8 11 6 5 10 -3 15 -9 12 -12z m1983 -104 c302
-361 431 -599 551 -1014 90 -312 116 -514 115 -919 0 -392 -29 -633 -115 -965
-173 -669 -458 -1219 -880 -1704 -148 -170 -215 -237 -449 -443 -124 -110
-232 -208 -240 -219 -18 -24 -10 -17 155 128 452 397 495 442 744 773 179 238
224 310 345 550 107 214 190 415 254 620 140 443 178 652 202 1095 16 295 -14
670 -76 948 -30 135 -117 394 -173 517 -58 128 -17 68 72 -104 100 -195 182
-405 218 -562 135 -589 129 -1052 -21 -1668 -63 -257 -105 -392 -181 -578
-159 -390 -394 -763 -725 -1153 -55 -64 -313 -306 -418 -390 -109 -89 -340
-262 -421 -317 -181 -121 -645 -351 -899 -444 -126 -47 -98 -27 51 36 76 31
185 82 243 112 170 89 428 264 422 287 -2 6 0 8 4 4 4 -5 14 1 22 13 8 11 20
18 27 15 11 -4 135 88 135 100 0 3 -21 -12 -47 -33 -68 -55 -94 -71 -53 -33
204 192 343 334 310 316 -8 -5 2 6 23 24 20 17 35 35 32 39 -2 5 5 17 18 27
l22 19 -20 -25 c-16 -21 -14 -20 13 5 18 16 30 35 28 41 -5 13 17 37 26 29 19
-19 404 465 575 720 237 355 483 969 578 1445 81 408 96 925 39 1320 -70 480
-253 979 -487 1328 -53 78 -94 142 -92 142 2 0 35 -37 73 -82z m-4979 -725
c-8 -10 -44 -52 -80 -93 -101 -115 -205 -251 -303 -400 -49 -74 -103 -155
-119 -179 -17 -24 -30 -50 -30 -57 0 -7 -4 -11 -8 -9 -4 3 -33 -37 -65 -88
-254 -408 -428 -926 -521 -1552 -25 -168 -25 -712 0 -932 66 -581 243 -1083
541 -1536 221 -337 482 -602 818 -831 358 -244 545 -336 918 -449 233 -71 311
-89 535 -124 170 -26 199 -28 505 -28 312 0 331 1 484 28 87 16 160 26 162 24
14 -13 -367 -80 -559 -98 -168 -15 -631 -6 -787 16 -240 33 -494 95 -695 170
-55 20 -110 37 -123 37 -13 0 -21 3 -18 6 3 3 -54 35 -127 71 -229 114 -510
305 -687 468 -279 256 -480 512 -689 879 -148 260 -237 502 -315 864 -151 696
-141 1218 40 1957 69 281 130 444 314 828 47 97 257 416 331 502 301 349 475
543 486 543 3 0 -1 -8 -8 -17z m5786 -797 c19 -78 49 -215 66 -306 16 -91 37
-199 45 -240 22 -114 34 -395 24 -565 -21 -387 -139 -854 -291 -1158 -65 -129
-184 -345 -227 -411 -81 -125 -267 -368 -386 -503 -220 -250 -548 -531 -876
-751 -130 -88 -392 -226 -564 -298 -451 -190 -1024 -297 -1431 -268 l-120 9
205 6 c113 4 252 14 310 23 153 23 404 87 388 98 -9 6 -6 7 8 3 21 -6 247 70
359 120 296 133 785 411 768 438 -3 6 -1 7 4 4 24 -15 453 345 644 539 315
322 630 800 792 1204 121 301 189 541 257 913 74 399 67 835 -20 1251 -11 54
-20 101 -19 105 2 16 32 -85 64 -213z m199 -1311 c1 -290 -8 -378 -69 -630
-158 -660 -589 -1291 -1242 -1817 -227 -184 -472 -341 -743 -477 -430 -215
-733 -307 -1235 -375 -408 -56 -884 -10 -1283 123 -263 88 -582 246 -862 428
-23 15 -24 15 -10 1 35 -38 298 -196 445 -268 237 -115 352 -158 625 -234 88
-24 315 -63 443 -76 191 -20 547 -8 742 24 448 75 717 157 1079 330 209 101
318 164 516 297 252 170 624 484 773 653 85 96 228 279 314 401 341 485 522
1026 534 1598 l2 62 7 -50 c16 -105 22 -449 11 -565 -14 -134 -49 -317 -86
-445 -76 -261 -251 -588 -474 -885 -228 -303 -729 -736 -1158 -999 -145 -89
-379 -208 -528 -271 -116 -48 -461 -161 -597 -195 -551 -140 -1086 -147 -1580
-20 -304 77 -486 148 -737 286 -209 116 -248 142 -451 305 -170 137 -322 283
-456 439 -63 74 -280 358 -317 415 -14 21 51 -49 163 -176 52 -59 158 -166
235 -237 148 -137 439 -362 454 -352 5 3 13 0 17 -6 5 -8 3 -9 -6 -4 -8 5 -11
4 -6 -3 3 -6 14 -10 24 -10 9 0 94 -41 187 -92 250 -137 432 -206 720 -275
301 -72 546 -100 880 -100 274 0 349 8 605 61 330 68 602 165 926 328 142 72
341 195 484 300 66 48 87 66 61 51 -10 -5 -12 -4 -7 4 4 6 11 9 15 6 5 -2 77
51 162 119 336 269 725 719 932 1078 60 103 206 408 240 498 122 327 193 688
205 1040 l6 195 19 -110 c15 -88 20 -163 21 -370z m23 78 c-3 -10 -5 -4 -5 12
0 17 2 24 5 18 2 -7 2 -21 0 -30z m-6891 -778 c22 -160 142 -633 199 -786 63
-168 150 -373 187 -439 17 -30 51 -93 76 -140 62 -117 99 -174 205 -314 180
-238 269 -334 482 -520 221 -192 306 -253 535 -380 167 -93 450 -210 615 -255
457 -123 960 -158 1380 -96 355 53 779 169 1090 300 203 85 530 268 800 448
421 281 936 827 1105 1170 64 130 70 125 14 -11 -129 -314 -323 -613 -559
-861 -38 -40 -69 -78 -67 -83 1 -5 -1 -7 -6 -4 -5 3 -26 -14 -48 -37 l-39 -42
38 34 c20 19 37 33 37 30 0 -3 -21 -25 -47 -49 -26 -25 -41 -37 -34 -27 26 33
0 16 -82 -55 -45 -39 -123 -102 -174 -139 -125 -94 -583 -369 -723 -435 -63
-30 -117 -58 -120 -62 -3 -4 -14 -9 -25 -10 -11 -2 -36 -12 -57 -23 -20 -10
-102 -43 -182 -74 -632 -239 -1360 -324 -1926 -224 -580 103 -1036 291 -1420
587 -327 253 -587 527 -754 795 -223 358 -334 621 -432 1023 -65 266 -79 383
-99 828 -4 91 -3 94 5 36 5 -36 16 -119 26 -185z m5881 203 c-3 -7 -5 -2 -5
12 0 14 2 19 5 13 2 -7 2 -19 0 -25z m-10 -50 c-3 -8 -6 -5 -6 6 -1 11 2 17 5
13 3 -3 4 -12 1 -19z m1038 -290 c-48 -372 -106 -582 -231 -830 -61 -123 -82
-156 -192 -302 -363 -481 -725 -799 -1267 -1112 -432 -249 -776 -380 -1285
-489 -280 -60 -373 -69 -685 -69 -307 -1 -449 13 -760 75 -433 85 -905 317
-1256 615 -68 59 -147 126 -176 150 -109 93 -352 387 -490 594 -60 91 -169
287 -223 403 -74 157 -219 561 -207 574 3 2 11 -13 17 -34 53 -164 169 -384
342 -648 268 -408 505 -676 803 -910 185 -145 241 -182 413 -278 484 -270 974
-397 1532 -397 380 0 722 62 1175 215 317 106 486 184 763 350 230 138 541
369 775 577 211 188 405 405 510 570 275 434 395 717 439 1043 9 67 14 88 16
63 2 -20 -4 -92 -13 -160z m-7768 140 c-3 -8 -6 -5 -6 6 -1 11 2 17 5 13 3 -3
4 -12 1 -19z m4620 -3414 c-3 -3 -12 -4 -19 -1 -8 3 -5 6 6 6 11 1 17 -2 13
-5z"/>
</g>
</svg>
